<svg id="Layer_1" data-name="Layer 1" xmlns="http://www.w3.org/2000/svg" width="49.898" height="49.898" viewBox="0 0 49.898 49.898">
  <defs>
    <style>
      .cls-1 {
        fill: #fff;
      }
    </style>
  </defs>
  <title>site</title>
  <circle cx="24.949" cy="24.949" r="24.949"/>
  <g>
    <path class="cls-1" d="M16.226,20.126a3.374,3.374,0,0,0-1.243-.957,3.716,3.716,0,0,0-1.617-.385,3.978,3.978,0,0,0-.968.121,2.949,2.949,0,0,0-.88.374,2.066,2.066,0,0,0-.649.66,1.82,1.82,0,0,0-.253.979,1.745,1.745,0,0,0,.22.9,2,2,0,0,0,.6.638,4.131,4.131,0,0,0,.935.462q0.549,0.2,1.21.4,0.748,0.242,1.551.55a6.041,6.041,0,0,1,1.474.814,4.044,4.044,0,0,1,1.1,1.276,3.888,3.888,0,0,1,.429,1.914,4.886,4.886,0,0,1-.462,2.189,4.517,4.517,0,0,1-1.232,1.551,5.246,5.246,0,0,1-1.8.924,7.572,7.572,0,0,1-2.178.309,8.178,8.178,0,0,1-2.97-.562,5.73,5.73,0,0,1-2.376-1.661L9.1,28.771a3.97,3.97,0,0,0,1.529,1.254,4.3,4.3,0,0,0,1.881.462,4.236,4.236,0,0,0,.99-0.121,2.634,2.634,0,0,0,.913-0.406,2.28,2.28,0,0,0,.66-0.716,2.067,2.067,0,0,0,.253-1.066,1.741,1.741,0,0,0-.286-1.023,2.58,2.58,0,0,0-.77-0.7,5.561,5.561,0,0,0-1.144-.517l-1.386-.462a13.586,13.586,0,0,1-1.408-.528,4.657,4.657,0,0,1-1.265-.814,3.926,3.926,0,0,1-.913-1.243A4.248,4.248,0,0,1,7.8,21.05,4.025,4.025,0,0,1,8.294,19a4.371,4.371,0,0,1,1.3-1.419,5.769,5.769,0,0,1,1.826-.836,7.965,7.965,0,0,1,2.079-.275,7.413,7.413,0,0,1,2.409.418,5.887,5.887,0,0,1,2.123,1.254Z" transform="translate(0)"/>
    <path class="cls-1" d="M20.449,18.3a1.52,1.52,0,0,1,.473-1.111,1.623,1.623,0,0,1,1.2-.473,1.745,1.745,0,0,1,1.221.451,1.543,1.543,0,0,1,0,2.266,1.745,1.745,0,0,1-1.221.451,1.621,1.621,0,0,1-1.2-.473A1.519,1.519,0,0,1,20.449,18.3Zm0.374,3.586h2.64v10.56h-2.64V21.886Z" transform="translate(0)"/>
    <path class="cls-1" d="M25.157,24V21.886H27V18.828h2.6v3.058h2.641V24H29.6V28.9a2.4,2.4,0,0,0,.254,1.166,1.18,1.18,0,0,0,1.133.462,3.216,3.216,0,0,0,.571-0.055,2.293,2.293,0,0,0,.551-0.165L32.2,32.38a4.4,4.4,0,0,1-.836.209,5.962,5.962,0,0,1-.924.077,4.216,4.216,0,0,1-1.717-.3,2.6,2.6,0,0,1-1.045-.813,3,3,0,0,1-.527-1.188A6.873,6.873,0,0,1,27,28.926V24H25.157Z" transform="translate(0)"/>
    <path class="cls-1" d="M44.231,27.3v0.352a2.836,2.836,0,0,1-.022.353H36.18a2.611,2.611,0,0,0,.968,1.858,3.32,3.32,0,0,0,.946.539,3.105,3.105,0,0,0,1.1.2,3.52,3.52,0,0,0,1.672-.363,3.139,3.139,0,0,0,1.122-1l1.76,1.408a5.288,5.288,0,0,1-4.532,2.112,6.441,6.441,0,0,1-2.266-.386,5.325,5.325,0,0,1-1.793-1.089,4.894,4.894,0,0,1-1.187-1.727,5.955,5.955,0,0,1-.43-2.321,6.055,6.055,0,0,1,.43-2.321,5.168,5.168,0,0,1,2.947-2.926,5.926,5.926,0,0,1,2.211-.407,5.571,5.571,0,0,1,2.035.363,4.417,4.417,0,0,1,1.617,1.078A5.008,5.008,0,0,1,43.847,24.8,7.374,7.374,0,0,1,44.231,27.3Zm-2.641-1.188a3.244,3.244,0,0,0-.143-0.968,2.159,2.159,0,0,0-1.232-1.375,2.732,2.732,0,0,0-1.11-.209,2.967,2.967,0,0,0-2.013.715,2.6,2.6,0,0,0-.913,1.836h5.411Z" transform="translate(0)"/>
  </g>
</svg>
